<svg xmlns="http://www.w3.org/2000/svg" width="48" height="48" viewBox="0 0 48 48" fill="none">
    <path d="M24.847 32.2246L22.6186 33.6231L21.4328 32.213L22.7099 31.0664L24.847 32.2246Z" fill="#00AEEF"/>
    <path d="M21.4328 32.213L20.2471 33.6231L18.0186 32.2246L19.2957 31.0664L21.4328 32.213Z" fill="#00AEEF"/>
    <path d="M22.6186 14.3769L24.847 15.7754L22.7099 16.9336L21.4328 15.787L22.6186 14.3769Z" fill="#00AEEF"/>
    <path d="M19.2957 16.9336L18.0186 15.7754L20.2471 14.3769L21.4328 15.787L19.2957 16.9336Z" fill="#00AEEF"/>
    <path fill-rule="evenodd" clip-rule="evenodd" d="M11 14C11 12.3431 12.3431 11 14 11H22.5415C22.3483 11.2997 22.25 11.6375 22.25 12C22.25 13.5188 23.4812 14.75 25 14.75C25.3625 14.75 25.7003 14.6517 26 14.5585V34C26 35.6569 24.6569 37 23 37H14C12.3431 37 11 35.6569 11 34V14Z" fill="#00AEEF"/>
    <path d="M27.2344 24.5147L26.3906 25.3585L27.0544 26.5855H28.2713L29.1764 25.8368L29.8301 26.1787L30.172 25.1068L29.2376 24.4531L29.3598 23.3423L28.1429 22.2315L27.1157 23.4585L27.2344 24.5147Z" fill="#00AEEF"/>
    <path d="M29.1764 25.8368L28.2713 26.5855H29.1151L29.9589 27.5515L31.6571 27.9547L31.8415 26.6468L30.5644 26.1174L29.8301 26.1787L29.1764 25.8368Z" fill="#00AEEF"/>
    <path d="M31.8415 26.6468L31.6571 27.9547L33.2324 28.7034L34.1375 27.8934L33.7342 26.8312L32.2447 26.2405L31.8415 26.6468Z" fill="#00AEEF"/>
    <path d="M33.7342 26.8312L34.1375 27.8934L35.2483 27.5515L35.4939 26.5246L34.528 25.7759L34.1247 26.2405H33.7342Z" fill="#00AEEF"/>
    <path d="M32.2447 26.2405L33.7342 26.2405V26.8312L32.2447 26.2405Z" fill="#00AEEF"/>
    <path d="M31.2539 21.067L32.2447 20.3795L34.0153 21.4114L34.2609 22.8426L32.9225 24.1107L31.7656 23.5199L31.2539 21.067Z" fill="#00AEEF"/>
    <path d="M29.2376 24.4531L30.172 25.1068L30.6847 24.576L30.9303 23.1448L29.3598 23.3423L29.2376 24.4531Z" fill="#00AEEF"/>
    <path d="M29.9589 27.5515L29.1151 26.5855H28.2713L28.1591 28.1391L28.9336 29.3661L29.626 29.0242L29.9589 27.5515Z" fill="#00AEEF"/>
    <path d="M29.626 29.0242L28.9336 29.3661L29.4463 30.6342L31.3795 30.7565L31.5639 29.3048L30.347 28.7645L29.626 29.0242Z" fill="#00AEEF"/>
    <path d="M31.5639 29.3048L31.3795 30.7565L32.9547 31.7835L33.5455 30.8784L32.9547 29.3661L31.5639 29.3048Z" fill="#00AEEF"/>
    <path d="M32.9547 29.3661L33.5455 30.8784L34.5892 30.6342L35.2429 29.6073L34.5892 28.7034L33.2324 28.7034L32.9547 29.3661Z" fill="#00AEEF"/>
    <path d="M34.5892 28.7034L35.2429 29.6073L35.7556 29.0242L36.1589 27.6128L35.2483 27.5515L34.1375 27.8934L34.5892 28.7034Z" fill="#00AEEF"/>
</svg>